<svg xmlns="http://www.w3.org/2000/svg" viewBox="0 0 24 24" class="s"><path d="M4 4H20V8H4z" opacity=".3"></path><path d="M24 22.6l-1.8-1.8C22.7 20 23 19 23 18c0-2.8-2.2-5-5-5s-5 2.2-5 5 2.2 5 5 5c1 0 2-.3 2.8-.8l1.8 1.8L24 22.6zM18 21c-1.7 0-3-1.3-3-3s1.3-3 3-3 3 1.3 3 3S19.7 21 18 21zM4 7H20V9H4z"></path><path d="M11.1,19H5V5h14v6.1c0.7,0.1,1.4,0.3,2,0.6V5c0-1.1-0.9-2-2-2H5C3.9,3,3,3.9,3,5v14c0,1.1,0.9,2,2,2h6.7 C11.4,20.4,11.2,19.7,11.1,19z"></path><path d="M10.7,14.3c-0.2-0.2-0.4-0.4-0.6-0.5c-0.2-0.1-0.5-0.3-0.8-0.4c-0.1-0.1-0.3-0.2-0.4-0.2c-0.1-0.1-0.2-0.2-0.2-0.3 c-0.1-0.1-0.1-0.2-0.1-0.3s0-0.2,0-0.3c0-0.1,0-0.3,0-0.4c0-0.1,0.1-0.2,0.1-0.3s0.1-0.1,0.2-0.2c0.1,0,0.2-0.1,0.3-0.1 c0.2,0,0.4,0.1,0.5,0.3c0.1,0.2,0.2,0.5,0.2,0.9h1.5c0-0.3,0-0.7-0.1-0.9c-0.1-0.3-0.2-0.5-0.3-0.7c-0.1-0.2-0.3-0.4-0.5-0.5 c-0.2-0.1-0.4-0.2-0.7-0.3V9H8.8v1.1c-0.3,0-0.5,0.1-0.7,0.2c-0.2,0.1-0.4,0.3-0.6,0.4c-0.2,0.2-0.3,0.4-0.4,0.6 C7.1,11.7,7,11.9,7,12.2c0,0.3,0,0.6,0.1,0.9c0.1,0.2,0.2,0.5,0.4,0.7s0.4,0.4,0.6,0.5c0.2,0.1,0.5,0.3,0.8,0.4 c0.1,0.1,0.3,0.1,0.4,0.2c0.1,0.1,0.2,0.2,0.2,0.3c0.1,0.1,0.1,0.2,0.1,0.3c0,0.1,0,0.2,0,0.4c0,0.1,0,0.2,0,0.4 c0,0.1-0.1,0.2-0.1,0.3c-0.1,0.1-0.1,0.1-0.2,0.2c-0.1,0-0.2,0.1-0.3,0.1c-0.1,0-0.2,0-0.3-0.1s-0.2-0.1-0.3-0.2 c-0.1-0.1-0.1-0.2-0.2-0.4c0-0.2-0.1-0.4-0.1-0.6H6.8c0,0.4,0.1,0.8,0.2,1.1c0.1,0.3,0.2,0.5,0.4,0.7c0.2,0.2,0.4,0.4,0.6,0.5 c0.2,0.1,0.5,0.2,0.7,0.2v1h0.8v-1c0.3,0,0.5-0.1,0.7-0.2c0.2-0.1,0.4-0.3,0.6-0.4s0.3-0.4,0.4-0.6c0.1-0.2,0.1-0.5,0.1-0.8 c0-0.3,0-0.6-0.1-0.9C11,14.7,10.9,14.5,10.7,14.3z"></path></svg>