<svg xmlns="http://www.w3.org/2000/svg" version="1.1" xmlns:xlink="http://www.w3.org/1999/xlink" xmlns:svgjs="http://svgjs.com/svgjs" width="512" height="512" x="0" y="0" viewBox="0 0 22 26" style="enable-background:new 0 0 512 512" xml:space="preserve" class=""><g><path fill="#0d3771" fill-rule="evenodd" d="M2 2h18v22H2zM0 2a2 2 0 0 1 2-2h18a2 2 0 0 1 2 2v22a2 2 0 0 1-2 2H2a2 2 0 0 1-2-2zm5 13a1 1 0 1 0 0 2h10a1 1 0 1 0 0-2zm-1 5a1 1 0 0 1 1-1h5a1 1 0 1 1 0 2H5a1 1 0 0 1-1-1zM15.707 5.707a1 1 0 0 0-1.414-1.414L9 9.586 7.707 8.293a1 1 0 0 0-1.414 1.414l2 2a1 1 0 0 0 1.414 0z" clip-rule="evenodd" data-original="#000000" opacity="1" class=""></path></g></svg>