<svg xmlns="http://www.w3.org/2000/svg" version="1.1" xmlns:xlink="http://www.w3.org/1999/xlink" xmlns:svgjs="http://svgjs.com/svgjs" width="512" height="512" x="0" y="0" viewBox="0 0 36 36" style="enable-background:new 0 0 512 512" xml:space="preserve" class=""><g transform="matrix(0.8400000000000003,0,0,0.8400000000000003,6.919999999999995,6.919999999999995)"><linearGradient id="a" x1="617.273" x2="642.729" y1="-1050.728" y2="-1025.272" gradientTransform="matrix(1 0 0 -1 -618 -1026)" gradientUnits="userSpaceOnUse"><stop offset="0" stop-color="#09f"></stop><stop offset="1" stop-color="#009"></stop></linearGradient><circle cx="12" cy="12" r="18" fill="url(#a)" data-original="url(#a)" class=""></circle><g fill="#fff"><path d="M6 12v3.5c0 1.4 2.7 2.5 6 2.5s6-1.1 6-2.5V12l-6 2z" fill="#ffffff" data-original="#ffffff"></path><path d="m12.2 8.5-6.7 2.3L12 13l12-4-12-4L0 9l4 1.3 7.8-2.8c.3-.1.5 0 .6.3.2.3 0 .6-.2.7zM5 16.5c0-.7-.4-1.2-1-1.4v-3.6c0-.3-.2-.5-.5-.5s-.5.2-.5.5v3.6c-.6.2-1 .801-1 1.4s.3 1.1.8 1.3L2 21h3l-.8-3.2c.5-.2.8-.7.8-1.3z" fill="#ffffff" data-original="#ffffff"></path></g></g></svg>